# xmcd
#
# Track frame offsets:
# 150
# 14198
# 29527
# 55329
# 84797
# 104313
# 123689
#
# Disc length: 1867 seconds
#
# Revision: 1
# Processed by: cddbd v1.5.2PL0 Copyright (c) Steve Scherf et al.
# Submitted via: CedeCatalogueitor 2.6.0.6 http://personales.ya.com/cdcatalogueitor
#
DISCID=5a074907
DTITLE=We Have Band - Oh! 
DYEAR=1900
DGENRE=
TTITLE0=Oh! (Radio Edit)
TTITLE1=Oh!  (Bit Funk Remix Edit)
TTITLE2=Oh! (Vicarious Bliss Remix)
TTITLE3=Oh!  (Filthy Dukes Remix)
TTITLE4=Oh!  (Plugs Remix)
TTITLE5=Oh!  (Dam Mantle Remix)
TTITLE6=Oh! (Treasure Remix)
EXTD=
EXTT0=
EXTT1=
EXTT2=
EXTT3=
EXTT4=
EXTT5=
EXTT6=
PLAYORDER=
